<svg width="15" height="10" viewBox="0 0 15 10" fill="none" xmlns="http://www.w3.org/2000/svg">
<path d="M14.625 0H0.375C0.16875 0 0 0.166667 0 0.37037V9.62963C0 9.83333 0.16875 10 0.375 10H14.625C14.8313 10 15 9.83333 15 9.62963V0.37037C15 0.166667 14.8313 0 14.625 0ZM13.725 0.740741L7.5 6.88889L1.275 0.740741H13.725ZM0.75 1.25926L4.5375 5L0.75 8.74074V1.25926ZM1.29375 9.25926L5.0625 5.53704L7.2375 7.68518C7.3875 7.83333 7.6125 7.83333 7.7625 7.68518L9.9375 5.53704L13.7062 9.25926H1.29375ZM14.25 8.74074L10.4625 5L14.25 1.25926V8.74074Z" fill="#898989"/>
</svg>
