<svg width="32" height="32" viewBox="0 0 32 32" fill="none" xmlns="http://www.w3.org/2000/svg">
<g clip-path="url(#clip0_139_1533)">
<path d="M22.4965 11.0851C22.3577 10.7255 22.145 10.399 21.8723 10.1266C21.5996 9.85415 21.2729 9.64187 20.9132 9.50341C20.4178 9.31996 19.8947 9.22299 19.3665 9.21675C18.4882 9.17675 18.2248 9.16675 15.9998 9.16675C13.7748 9.16675 13.5115 9.17675 12.6332 9.21675C12.1044 9.2228 11.5807 9.31977 11.0848 9.50341C10.7253 9.64225 10.3987 9.85487 10.1263 10.1276C9.8539 10.4003 9.64163 10.727 9.50317 11.0867C9.31971 11.5821 9.22275 12.1052 9.2165 12.6334C9.1765 13.5117 9.1665 13.7751 9.1665 16.0001C9.1665 18.2251 9.1765 18.4884 9.2165 19.3667C9.22256 19.8955 9.31953 20.4192 9.50317 20.9151C9.64201 21.2747 9.85463 21.6012 10.1273 21.8736C10.4 22.146 10.7268 22.3583 11.0865 22.4967C11.5818 22.6802 12.105 22.7772 12.6332 22.7834C13.5115 22.8234 13.7748 22.8334 15.9998 22.8334C18.2248 22.8334 18.4882 22.8234 19.3665 22.7834C19.8952 22.7774 20.419 22.6804 20.9148 22.4967C21.2744 22.3579 21.6009 22.1453 21.8734 21.8726C22.1458 21.5999 22.358 21.2731 22.4965 20.9134C22.68 20.4181 22.7769 19.8949 22.7832 19.3667C22.8232 18.4884 22.8332 18.2251 22.8332 16.0001C22.8332 13.7751 22.8232 13.5117 22.7832 12.6334C22.7771 12.1047 22.6801 11.5809 22.4965 11.0851ZM15.9998 20.2801C15.1533 20.2801 14.3258 20.0291 13.622 19.5588C12.9182 19.0885 12.3696 18.42 12.0456 17.638C11.7217 16.8559 11.6369 15.9953 11.8021 15.1651C11.9672 14.3349 12.3749 13.5722 12.9734 12.9737C13.572 12.3751 14.3346 11.9675 15.1648 11.8023C15.9951 11.6372 16.8557 11.7219 17.6377 12.0459C18.4198 12.3698 19.0882 12.9184 19.5585 13.6222C20.0288 14.3261 20.2798 15.1536 20.2798 16.0001C20.2798 17.1352 19.8289 18.2238 19.0263 19.0265C18.2236 19.8292 17.135 20.2801 15.9998 20.2801ZM20.4482 12.5517C20.2504 12.5517 20.057 12.4931 19.8926 12.3832C19.7282 12.2733 19.6 12.1172 19.5243 11.9344C19.4486 11.7517 19.4288 11.5506 19.4674 11.3567C19.506 11.1627 19.6012 10.9845 19.7411 10.8446C19.8809 10.7048 20.0591 10.6095 20.2531 10.571C20.4471 10.5324 20.6481 10.5522 20.8309 10.6279C21.0136 10.7036 21.1698 10.8317 21.2796 10.9962C21.3895 11.1606 21.4482 11.354 21.4482 11.5517C21.4482 11.817 21.3428 12.0713 21.1553 12.2589C20.9677 12.4464 20.7134 12.5517 20.4482 12.5517Z" fill="#898989" fill-opacity="0.75"/>
<path d="M16 18.7783C17.5344 18.7783 18.7783 17.5344 18.7783 16C18.7783 14.4656 17.5344 13.2217 16 13.2217C14.4656 13.2217 13.2217 14.4656 13.2217 16C13.2217 17.5344 14.4656 18.7783 16 18.7783Z" fill="#898989" fill-opacity="0.75"/>
<path d="M16 0C12.8355 0 9.74207 0.938384 7.11088 2.69649C4.4797 4.45459 2.42894 6.95345 1.21793 9.87706C0.00693252 12.8007 -0.309921 16.0177 0.307443 19.1214C0.924806 22.2251 2.44866 25.0761 4.6863 27.3137C6.92394 29.5513 9.77487 31.0752 12.8786 31.6926C15.9823 32.3099 19.1993 31.9931 22.1229 30.7821C25.0466 29.5711 27.5454 27.5203 29.3035 24.8891C31.0616 22.2579 32 19.1645 32 16C32 11.7565 30.3143 7.68687 27.3137 4.68629C24.3131 1.68571 20.2435 0 16 0ZM24.2833 19.4367C24.269 20.1277 24.1377 20.8112 23.895 21.4583C23.681 22.0118 23.3537 22.5144 22.9341 22.934C22.5144 23.3536 22.0118 23.681 21.4583 23.895C20.8112 24.1377 20.1277 24.269 19.4367 24.2833C18.5467 24.3233 18.2633 24.3333 16 24.3333C13.7367 24.3333 13.4533 24.3233 12.5633 24.2833C11.8724 24.269 11.1888 24.1377 10.5417 23.895C9.98821 23.681 9.48557 23.3536 9.06596 22.934C8.64636 22.5144 8.31905 22.0118 8.10501 21.4583C7.86228 20.8112 7.73097 20.1277 7.71667 19.4367C7.67667 18.5467 7.66667 18.2633 7.66667 16C7.66667 13.7367 7.67667 13.4533 7.71667 12.5633C7.73097 11.8723 7.86228 11.1888 8.10501 10.5417C8.31905 9.9882 8.64636 9.48556 9.06596 9.06596C9.48557 8.64635 9.98821 8.31904 10.5417 8.105C11.1888 7.86227 11.8724 7.73097 12.5633 7.71667C13.4533 7.67667 13.7367 7.66667 16 7.66667C18.2633 7.66667 18.5467 7.67667 19.4367 7.71667C20.1277 7.73097 20.8112 7.86227 21.4583 8.105C22.0118 8.31904 22.5144 8.64635 22.9341 9.06596C23.3537 9.48556 23.681 9.9882 23.895 10.5417C24.1377 11.1888 24.269 11.8723 24.2833 12.5633C24.3233 13.4533 24.3333 13.7367 24.3333 16C24.3333 18.2633 24.3233 18.5467 24.2833 19.4367Z" fill="#898989" fill-opacity="0.75"/>
</g>
<defs>
<clipPath id="clip0_139_1533">
<rect width="32" height="32" fill="white"/>
</clipPath>
</defs>
</svg>
