<svg width="15" height="15" viewBox="0 0 15 15" fill="none" xmlns="http://www.w3.org/2000/svg">
<path d="M14.499 0.3536C14.3049 0.17678 14.0706 0.0608943 13.8211 0.0182763C13.5716 -0.0243417 13.3162 0.00790251 13.0821 0.111578L0.862972 5.51276C0.601659 5.63047 0.379221 5.83241 0.225183 6.09176C0.071145 6.35112 -0.00720874 6.65563 0.000521581 6.96488C0.0082519 7.27413 0.101701 7.57349 0.268465 7.82323C0.435229 8.07297 0.667421 8.26128 0.934224 8.36317L3.40588 9.30431L4.78353 14.2922C4.80225 14.3588 4.82942 14.4222 4.86424 14.4806C4.86953 14.4895 4.87698 14.4962 4.8826 14.5049C4.92283 14.5663 4.97145 14.6207 5.02676 14.666C5.04249 14.6791 5.05755 14.6914 5.07437 14.703C5.1391 14.7501 5.21078 14.7844 5.28623 14.8046L5.2943 14.8054L5.29888 14.8075C5.34425 14.8176 5.39042 14.8228 5.43671 14.8228C5.44117 14.8228 5.44512 14.8205 5.44953 14.8204C5.51939 14.8191 5.58865 14.8059 5.65483 14.7814C5.67022 14.7756 5.68342 14.766 5.69835 14.7591C5.7477 14.7367 5.79446 14.708 5.83765 14.6736C5.87223 14.6417 5.90683 14.6098 5.94144 14.5779L7.78387 12.3508L10.5318 14.6814C10.7738 14.8876 11.0716 14.9997 11.3782 15C11.6994 14.9995 12.0108 14.8782 12.26 14.6563C12.5093 14.4343 12.6813 14.1254 12.7472 13.7811L14.9718 1.82473C15.0222 1.55563 15.0048 1.27659 14.9216 1.01746C14.8383 0.75833 14.6922 0.52886 14.499 0.3536ZM5.70708 9.54197C5.61253 9.64506 5.54791 9.77643 5.5213 9.91959L5.31027 11.0423L4.77567 9.1066L7.5475 7.5263L5.70708 9.54197ZM11.3675 13.5012L8.12013 10.747C7.98427 10.632 7.81384 10.5774 7.64281 10.5939C7.47177 10.6103 7.31269 10.6968 7.19725 10.8359L6.60719 11.549L6.81572 10.4393L11.6452 5.15188C11.7604 5.02585 11.8307 4.85878 11.8431 4.68093C11.8556 4.50309 11.8095 4.32624 11.7131 4.18242C11.6168 4.03859 11.4766 3.9373 11.3179 3.8969C11.1592 3.85649 10.9926 3.87964 10.8481 3.96215L3.91709 7.9131L1.37768 6.89569L13.6361 1.52655L11.3675 13.5012Z" fill="#898989"/>
</svg>
